<?xml version="1.0" encoding="UTF-8" standalone="no"?><!DOCTYPE svg PUBLIC "-//W3C//DTD SVG 1.1//EN" "http://www.w3.org/Graphics/SVG/1.1/DTD/svg11.dtd"><svg width="100%" height="100%" viewBox="0 0 8814 589" version="1.1" xmlns="http://www.w3.org/2000/svg" xmlns:xlink="http://www.w3.org/1999/xlink" xml:space="preserve" xmlns:serif="http://www.serif.com/" style="fill-rule:evenodd;clip-rule:evenodd;stroke-linejoin:round;stroke-miterlimit:2;"><rect id="Tavola-da-disegno2" serif:id="Tavola da disegno2" x="0" y="-0" width="8813.97" height="588.536" style="fill:none;"/><path d="M3872.03,24.157l-72.444,396.788l86.052,0l72.437,-396.788l-86.045,-0Z" style="fill:#2e3092;fill-rule:nonzero;"/><path d="M3805.22,108.513l15.386,-84.356l-405.17,-0l-15.349,84.166l270.108,0l-311.848,228.456l-15.348,84.166l405.164,0l15.347,-84.166l-270.93,0l312.64,-228.266Z" style="fill:#2e3092;fill-rule:nonzero;"/><path d="M2144.09,278.461l70.084,-126.533l27.791,126.533l-97.875,-0Zm42.378,-254.304l-219.764,396.788l98.47,0l32.995,-58.32l162.285,-0l13.447,58.32l97.956,0l-87.167,-396.788l-98.222,-0Z" style="fill:#2e3092;fill-rule:nonzero;"/><path d="M3004.58,329.572c-3.891,-4.808 -5.216,-10.417 -3.99,-16.824l8.845,-48.113l257.466,-0l15.943,-84.168l-257.831,0l8.721,-48.077c1.226,-6.416 4.59,-12.035 10.114,-16.842c5.525,-4.81 11.762,-7.225 18.724,-7.225l294.555,0l15.341,-84.166l-356.059,-0c-13.508,-0 -25.889,4.715 -37.144,14.129c-11.261,9.421 -18.105,20.738 -20.564,33.964l-55.237,300.6c-2.459,13.227 0.311,24.555 8.288,33.967c7.977,9.421 18.724,14.128 32.227,14.128l356.052,0l15.343,-84.166l-294.536,0c-6.949,0 -12.375,-2.398 -16.258,-7.207" style="fill:#2e3092;fill-rule:nonzero;"/><path d="M2653.74,268.334l-71.397,-244.177l-86.479,-0l-72.443,396.788l86.057,0l39.394,-215.698l63.622,215.698l27.018,0.012l142.545,-216.652l-39.548,216.64l86.064,0l72.443,-396.788l-85.866,-0l-161.41,244.177Z" style="fill:#2e3092;fill-rule:nonzero;"/><path d="M1652.18,329.572c-3.891,-4.808 -5.216,-10.417 -3.989,-16.824l52.839,-288.591l-86.075,-0l-63.841,348.693c-2.452,13.227 0.303,24.555 8.288,33.967c7.977,9.421 18.724,14.128 32.226,14.128l356.047,0l15.348,-84.166l-294.585,0c-6.949,0 -12.369,-2.398 -16.258,-7.207" style="fill:#2e3092;fill-rule:nonzero;"/><path d="M4129.36,278.461l70.058,-126.533l27.816,126.533l-97.874,-0Zm42.383,-254.304l-219.782,396.788l98.476,0l32.976,-58.32l162.304,-0l13.428,58.32l97.98,0l-87.185,-396.788l-98.197,-0Z" style="fill:#2e3092;fill-rule:nonzero;"/><path d="M6854.79,115.548c5.512,-4.81 11.707,-7.225 18.705,-7.225l294.58,0l15.299,-84.166l-356.085,-0c-13.502,-0 -25.828,4.715 -37.101,14.129c-11.272,9.421 -18.086,20.738 -20.562,33.964l-55.25,300.6c-2.478,13.227 0.31,24.555 8.3,33.967c7.99,9.421 18.705,14.128 32.208,14.128l356.084,0l15.36,-84.166l-294.579,0c-6.936,0 -12.387,-2.398 -16.29,-7.207c-3.839,-4.808 -5.202,-10.417 -3.963,-16.824l8.857,-48.113l257.415,-0l15.98,-84.168l-257.787,0l8.672,-48.077c1.239,-6.416 4.645,-12.035 10.157,-16.842" style="fill:#2e3092;fill-rule:nonzero;"/><path d="M6735.86,24.157l-405.139,-0l-15.36,84.166l135.026,0c6.998,0 12.387,2.405 16.29,7.215c3.901,4.807 5.203,10.426 4.025,16.834l-52.833,288.573l85.909,0l52.832,-288.573c1.24,-6.408 4.584,-12.027 10.097,-16.834c5.574,-4.81 11.768,-7.215 18.767,-7.215l135.026,0l15.36,-84.166Z" style="fill:#2e3092;fill-rule:nonzero;"/><path d="M5246.49,132.352l-11.037,60.119c-1.245,6.425 -4.738,12.044 -10.438,16.854c-5.735,4.807 -11.86,7.212 -18.376,7.212l-183.92,0c-6.95,0 -12.363,-2.393 -16.247,-7.202c-3.877,-4.802 -5.196,-10.4 -3.951,-16.805l10.969,-60.131c1.245,-6.414 4.633,-12.034 10.151,-16.851c5.489,-4.81 11.719,-7.225 18.663,-7.225l183.956,0c6.95,0 12.357,2.405 16.241,7.215c3.884,4.807 5.204,10.407 3.989,16.814Zm89.147,-94.066c-7.797,-9.414 -18.624,-14.129 -32.554,-14.129l-306.936,-0c-13.502,-0 -25.896,4.715 -37.113,14.129c-11.292,9.421 -18.13,20.738 -20.582,33.964l-63.828,348.695l86.046,0l22.012,-120.239l270.076,-0c13.503,-0 25.859,-4.708 37.151,-14.129c11.255,-9.414 18.092,-20.739 20.551,-33.967l33.156,-180.36c2.459,-13.226 -0.211,-24.543 -7.979,-33.964" style="fill:#2e3092;fill-rule:nonzero;"/><path d="M5882.88,38.286c-11.255,9.421 -18.092,20.738 -20.552,33.964l-26.423,144.287c-2.458,13.227 0.211,24.558 7.978,33.97c7.798,9.421 18.415,14.128 31.911,14.128l245.523,-0c6.938,-0 12.388,2.406 16.291,7.215c3.901,4.809 5.203,10.417 3.964,16.824l-4.399,24.025c-1.238,6.426 -4.583,12.048 -10.157,16.859c-5.512,4.812 -11.769,7.221 -18.705,7.221l-294.418,0l-15.423,84.166l356.047,0c13.565,0 25.889,-4.707 37.163,-14.128c11.273,-9.412 18.085,-20.74 20.563,-33.967l26.386,-144.287c2.478,-13.227 -0.186,-24.546 -7.928,-33.966c-7.804,-9.415 -18.458,-14.13 -31.961,-14.13l-245.48,0c-6.98,0 -12.394,-2.396 -16.278,-7.206c-3.883,-4.81 -5.202,-10.418 -3.988,-16.833l4.416,-24.029c1.214,-6.414 4.595,-12.034 10.115,-16.851c5.524,-4.81 11.755,-7.225 18.699,-7.225l294.455,0l15.423,-84.166l-356.072,-0c-13.497,-0 -25.89,4.715 -37.15,14.129" style="fill:#2e3092;fill-rule:nonzero;"/><path d="M5699.52,132.352l-33.155,180.358c-1.214,6.423 -4.597,12.047 -10.115,16.85c-5.525,4.81 -11.755,7.219 -18.699,7.219l-183.957,0c-6.943,0 -12.356,-2.398 -16.24,-7.207c-3.885,-4.808 -5.204,-10.417 -3.99,-16.824l33.12,-180.358c1.25,-6.416 4.595,-12.035 10.151,-16.842c5.524,-4.81 11.756,-7.225 18.699,-7.225l183.957,0c6.95,0 12.357,2.405 16.24,7.215c3.884,4.807 5.203,10.407 3.989,16.814Zm56.594,-108.195l-306.937,-0c-13.503,-0 -25.896,4.715 -37.151,14.129c-11.253,9.421 -18.092,20.738 -20.545,33.964l-55.242,300.6c-2.459,13.227 0.322,24.555 8.299,33.967c7.978,9.421 18.693,14.128 32.234,14.128l306.935,0c13.502,0 25.859,-4.707 37.151,-14.128c11.216,-9.412 18.092,-20.74 20.551,-33.967l55.236,-300.6c2.459,-13.226 -0.21,-24.543 -7.977,-33.964c-7.797,-9.414 -18.625,-14.129 -32.554,-14.129" style="fill:#2e3092;fill-rule:nonzero;"/><rect x="1551.11" y="468.987" width="5632.25" height="70.359" style="fill:#f7931d;"/><path d="M4691.74,275.458l-92.746,-0c-10.257,-0 -14.351,-5.01 -12.289,-15.03l0.607,-3.612c1.636,-10.416 7.587,-15.628 17.845,-15.628l93.489,-0l-6.906,34.27Zm177.975,-237.172c-7.805,-9.414 -18.632,-14.129 -32.556,-14.129l-306.942,-0c-13.496,-0 -25.89,4.715 -37.144,14.129c-11.255,9.421 -18.092,20.738 -20.551,33.964l-55.243,300.6c-2.459,13.227 0.285,24.555 8.3,33.967c7.977,9.421 18.699,14.128 32.195,14.128l261.529,0l12.251,-66.73l-215.043,-0c-7.805,-0 -13.93,-2.706 -18.452,-8.128c-4.491,-5.409 -5.915,-11.941 -4.274,-19.567l38.216,-207.988c1.208,-7.607 5.092,-14.116 11.682,-19.528c6.553,-5.409 13.713,-8.115 21.511,-8.115l213.303,-0c7.768,-0 13.924,2.712 18.452,8.134c4.484,5.419 5.91,11.94 4.311,19.567l-25.221,137.675c-2.025,12.795 -9.792,19.193 -23.289,19.193l-6.126,0.052l23.004,-128.7c1.642,-8.418 0,-15.529 -4.881,-21.341c-4.911,-5.817 -11.681,-8.729 -20.26,-8.729l-186.026,-0l-9.829,52.904l147.345,-0c10.22,-0 14.32,5.015 12.282,15.031l-0.601,3.609l-131.389,-0c-8.585,-0 -16.488,3.007 -23.648,9.018c-7.154,6.011 -11.329,13.224 -12.574,21.641l-14.742,79.36c-1.64,8.417 0,15.538 4.912,21.341c4.919,5.814 11.689,8.716 20.267,8.716l230.825,0c13.894,0 26.504,-4.708 37.758,-14.128c11.255,-9.412 18.092,-20.74 20.551,-33.967l38.068,-208.015c2.459,-13.226 -0.212,-24.543 -7.971,-33.964" style="fill:#f7931d;fill-rule:nonzero;"/><path d="M752.36,467.952c-0,-9.818 7.993,-17.798 17.805,-17.798c9.818,0 17.799,7.98 17.799,17.798c-0,9.809 -7.981,17.802 -17.799,17.802c-9.812,-0 -17.805,-7.993 -17.805,-17.802Zm-22.891,0c-0,22.436 18.256,40.695 40.696,40.695c22.441,0 40.691,-18.259 40.691,-40.695c-0,-22.439 -18.25,-40.69 -40.691,-40.69c-22.44,0 -40.696,18.251 -40.696,40.69" style="fill:#2e3092;fill-rule:nonzero;"/><path d="M188.62,467.952c0,-9.818 7.985,-17.798 17.801,-17.798c9.812,0 17.804,7.98 17.804,17.798c0,9.809 -7.992,17.802 -17.804,17.802c-9.816,-0 -17.801,-7.993 -17.801,-17.802Zm-22.889,0c-0,22.436 18.253,40.695 40.69,40.695c22.439,0 40.695,-18.259 40.695,-40.695c-0,-22.439 -18.256,-40.69 -40.695,-40.69c-22.437,0 -40.69,18.251 -40.69,40.69" style="fill:#2e3092;fill-rule:nonzero;"/><path d="M119.119,440.904l-36.623,-0l0,-164.248l52.426,-169.657l237.746,0l0,333.905l-78.948,-0c-11.56,-37.224 -46.321,-64.335 -87.299,-64.335c-40.982,0 -75.743,27.111 -87.302,64.335Zm18.805,27.048c0,-37.764 30.726,-68.487 68.497,-68.487c37.766,0 68.493,30.723 68.493,68.487c0,37.764 -30.727,68.491 -68.493,68.491c-37.771,0 -68.497,-30.727 -68.497,-68.491Zm544.946,-27.048l-287.304,-0l0,-19.993l296.284,0c-3.752,6.222 -6.785,12.923 -8.98,19.993Zm18.805,27.048c0,-19.508 8.21,-37.116 21.341,-49.605c0.426,-0.344 0.818,-0.724 1.191,-1.131c12.158,-11.022 28.29,-17.751 45.958,-17.751c17.675,0 33.808,6.729 45.966,17.751c0.372,0.407 0.764,0.787 1.189,1.131c13.126,12.489 21.336,30.097 21.336,49.605c-0,37.764 -30.722,68.491 -68.491,68.491c-37.768,0 -68.49,-30.727 -68.49,-68.491Zm155.793,-27.048c-2.197,-7.07 -5.235,-13.771 -8.988,-19.993l107.168,0l-0,19.993l-98.18,-0Zm-853.301,11.446c-0,6.323 5.126,11.45 11.446,11.45l99.528,-0c-0.065,1.374 -0.108,2.755 -0.108,4.152c0,50.39 40.997,91.385 91.388,91.385c50.389,-0 91.384,-40.995 91.384,-91.385c0,-1.397 -0.041,-2.778 -0.105,-4.152l381.182,-0c-0.059,1.374 -0.105,2.755 -0.105,4.152c0,50.39 40.997,91.385 91.388,91.385c50.391,-0 91.389,-40.995 91.389,-91.385c-0,-1.397 -0.046,-2.778 -0.105,-4.152l127.091,-0c6.321,-0 11.446,-5.127 11.446,-11.45c-0,-6.319 -5.125,-11.446 -11.446,-11.446l-10,-0l-0,-125.033c-0,-6.318 -5.125,-11.444 -11.447,-11.444c-6.321,0 -11.445,5.126 -11.445,11.444l-0,82.146l-126.745,-0c-15.897,-13.374 -36.39,-21.448 -58.738,-21.448c-22.348,0 -42.841,8.074 -58.73,21.448l-315.869,-0l0,-370.956l560.082,-0l-0,68.491c-0,6.32 5.124,11.447 11.445,11.447c6.322,0 11.447,-5.127 11.447,-11.447l-0,-79.938c-0,-6.319 -5.125,-11.447 -11.447,-11.447l-582.973,-0c-6.321,-0 -11.452,5.128 -11.452,11.447l0,68.491l-246.188,-0c-5.023,-0 -9.458,3.274 -10.939,8.074l-55.433,179.379c-0.335,1.085 -0.503,2.223 -0.503,3.37l0,165.976l-43.992,-0c-6.32,-0 -11.446,5.127 -11.446,11.446" style="fill:#2e3092;fill-rule:nonzero;"/><path d="M1086.02,145.991l-216.414,-0c-6.321,-0 -11.451,-5.127 -11.451,-11.447c-0,-6.322 5.13,-11.447 11.451,-11.447l216.414,0c6.321,0 11.446,5.125 11.446,11.447c-0,6.32 -5.125,11.447 -11.446,11.447" style="fill:#2e3092;fill-rule:nonzero;"/><path d="M920.546,204.737c0,-6.32 5.125,-11.448 11.446,-11.448l224.224,0c6.316,0 11.447,5.128 11.447,11.448c-0,6.318 -5.131,11.445 -11.447,11.445l-224.224,0c-6.321,0 -11.446,-5.127 -11.446,-11.445" style="fill:#2e3092;fill-rule:nonzero;"/><path d="M846.46,273.95c0,-6.314 5.118,-11.445 11.439,-11.445l196.929,0c6.32,0 11.445,5.131 11.445,11.445c-0,6.323 -5.125,11.449 -11.445,11.449l-196.929,-0c-6.321,-0 -11.439,-5.126 -11.439,-11.449" style="fill:#2e3092;fill-rule:nonzero;"/><path d="M153.537,277.126l32.321,-115.54l126.369,0l-0,115.54l-158.69,0Zm-24.208,18.366c2.163,2.853 5.544,4.528 9.119,4.528l185.221,-0c6.321,-0 11.446,-5.124 11.446,-11.444l0,-138.436c0,-6.319 -5.125,-11.446 -11.446,-11.446l-146.492,0c-5.134,0 -9.642,3.421 -11.021,8.362l-38.728,138.432c-0.971,3.453 -0.264,7.154 1.901,10.004" style="fill:#2e3092;fill-rule:nonzero;"/><path d="M276.881,327.824l46.788,-0c6.321,-0 11.446,5.132 11.446,11.446c0,6.323 -5.125,11.45 -11.446,11.45l-46.788,-0c-6.32,-0 -11.447,-5.127 -11.447,-11.45c-0,-6.314 5.127,-11.446 11.447,-11.446" style="fill:#2e3092;fill-rule:nonzero;"/><path d="M84.435,438.966l33.272,-0c4.555,-13.908 12.357,-26.558 22.702,-36.921c17.551,-17.578 41.161,-27.414 66.012,-27.414c24.832,-0 48.422,9.821 65.968,27.376c10.364,10.368 18.181,23.033 22.742,36.959l75.598,-0l-0,-330.028l-234.378,-0l-51.916,168.011l-0,162.017Zm179.06,-99.696c0,-7.387 5.999,-13.385 13.386,-13.385l46.788,-0c7.389,-0 13.384,5.997 13.384,13.385c0,7.391 -5.991,13.388 -13.384,13.388l-46.788,-0c-7.391,-0 -13.386,-5.998 -13.386,-13.388Zm-135.71,-42.605c-2.533,-3.336 -3.354,-7.665 -2.225,-11.698l38.73,-138.434c1.617,-5.779 6.885,-9.778 12.887,-9.778l146.492,-0c7.391,-0 13.384,5.995 13.384,13.385l0,138.436c0,7.39 -5.994,13.382 -13.384,13.382l-185.221,-0c-4.184,-0 -8.134,-1.961 -10.663,-5.293" style="fill:#f7931d;"/><path d="M953.709,422.85l-101.97,-0c2.874,5.138 5.293,10.52 7.137,16.116l94.833,-0l0,-16.116Z" style="fill:#f7931d;"/><path d="M397.505,422.85l-0,16.116l283.954,-0c1.84,-5.598 4.259,-10.98 7.136,-16.116l-291.09,-0Z" style="fill:#f7931d;"/><path d="M699.321,241.575l-49.71,-0c-5.491,-0 -7.687,-2.739 -6.583,-8.226l0.328,-1.974c0.875,-5.701 4.065,-8.556 9.562,-8.556l50.117,0l-3.714,18.756Zm95.395,-129.807c-4.17,-5.153 -9.981,-7.731 -17.438,-7.731l-164.527,0c-7.243,0 -13.877,2.578 -19.911,7.731c-6.033,5.158 -9.706,11.349 -11.021,18.591l-29.61,164.523c-1.321,7.236 0.163,13.438 4.444,18.592c4.276,5.157 10.035,7.731 17.27,7.731l140.171,-0l6.569,-36.523l-115.265,-0c-4.178,-0 -7.465,-1.481 -9.884,-4.451c-2.412,-2.956 -3.183,-6.531 -2.301,-10.704l20.485,-113.836c0.66,-4.164 2.746,-7.729 6.257,-10.691c3.515,-2.962 7.366,-4.44 11.537,-4.44l114.331,-0c4.171,-0 7.471,1.486 9.884,4.45c2.418,2.967 3.183,6.537 2.306,10.712l-13.497,75.35c-1.098,7.003 -5.256,10.503 -12.486,10.503l-3.288,0.031l12.336,-70.441c0.875,-4.606 -0,-8.498 -2.628,-11.68c-2.634,-3.184 -6.25,-4.776 -10.858,-4.776l-99.703,-0l-5.268,28.954l78.975,0c5.478,0 7.674,2.747 6.582,8.227l-0.326,1.973l-70.418,0c-4.603,0 -8.831,1.646 -12.669,4.936c-3.837,3.292 -6.085,7.241 -6.745,11.848l-7.897,43.433c-0.882,4.608 -0,8.502 2.634,11.68c2.628,3.18 6.249,4.771 10.851,4.771l123.725,-0c7.452,-0 14.198,-2.576 20.237,-7.731c6.027,-5.154 9.708,-11.353 11.021,-18.595l20.401,-113.846c1.321,-7.242 -0.118,-13.433 -4.276,-18.591" style="fill:#f7931d;fill-rule:nonzero;"/><path d="M222.775,467.956c-0,-9.033 -7.319,-16.363 -16.354,-16.363c-9.036,-0 -16.357,7.329 -16.357,16.363c-0,9.032 7.325,16.354 16.357,16.354c9.029,0 16.354,-7.323 16.354,-16.354" style="fill:#f7931d;"/><path d="M786.517,467.96c0,-9.035 -7.318,-16.365 -16.354,-16.365c-9.036,-0 -16.357,7.329 -16.357,16.365c0,9.03 7.327,16.353 16.357,16.353c9.03,-0 16.354,-7.324 16.354,-16.353" style="fill:#f7931d;"/><path d="M7981.26,467.952c0,-9.818 -7.994,-17.798 -17.805,-17.798c-9.818,0 -17.799,7.98 -17.799,17.798c0,9.809 7.981,17.802 17.799,17.802c9.811,-0 17.805,-7.993 17.805,-17.802Zm22.892,0c-0,22.436 -18.257,40.695 -40.697,40.695c-22.441,0 -40.691,-18.259 -40.691,-40.695c0,-22.439 18.25,-40.69 40.691,-40.69c22.44,0 40.697,18.251 40.697,40.69" style="fill:#2e3092;fill-rule:nonzero;"/><path d="M8545,467.952c0,-9.818 -7.984,-17.798 -17.8,-17.798c-9.811,0 -17.804,7.98 -17.804,17.798c0,9.809 7.993,17.802 17.804,17.802c9.816,-0 17.8,-7.993 17.8,-17.802Zm22.89,0c0,22.436 -18.252,40.695 -40.69,40.695c-22.439,0 -40.695,-18.259 -40.695,-40.695c0,-22.439 18.256,-40.69 40.695,-40.69c22.438,0 40.69,18.251 40.69,40.69" style="fill:#2e3092;fill-rule:nonzero;"/><path d="M8614.5,440.904l36.622,-0l0,-164.248l-52.426,-169.657l-237.746,0l-0,333.905l78.948,-0c11.559,-37.224 46.321,-64.335 87.299,-64.335c40.982,0 75.743,27.111 87.303,64.335Zm-18.806,27.048c-0,-37.764 -30.727,-68.487 -68.497,-68.487c-37.766,0 -68.493,30.723 -68.493,68.487c-0,37.764 30.727,68.491 68.493,68.491c37.77,0 68.497,-30.727 68.497,-68.491Zm-544.945,-27.048l287.303,-0l-0,-19.993l-296.285,0c3.753,6.222 6.786,12.923 8.982,19.993Zm-18.806,27.048c0,-19.508 -8.21,-37.116 -21.341,-49.605c-0.425,-0.344 -0.817,-0.724 -1.191,-1.131c-12.158,-11.022 -28.289,-17.751 -45.958,-17.751c-17.675,0 -33.808,6.729 -45.966,17.751c-0.372,0.407 -0.764,0.787 -1.189,1.131c-13.126,12.489 -21.336,30.097 -21.336,49.605c0,37.764 30.722,68.491 68.491,68.491c37.769,0 68.49,-30.727 68.49,-68.491Zm-155.793,-27.048c2.197,-7.07 5.236,-13.771 8.988,-19.993l-107.167,0l-0,19.993l98.179,-0Zm853.301,11.446c0,6.323 -5.126,11.45 -11.446,11.45l-99.528,-0c0.064,1.374 0.108,2.755 0.108,4.152c-0,50.39 -40.998,91.385 -91.388,91.385c-50.389,-0 -91.384,-40.995 -91.384,-91.385c-0,-1.397 0.041,-2.778 0.105,-4.152l-381.182,-0c0.059,1.374 0.105,2.755 0.105,4.152c0,50.39 -40.997,91.385 -91.388,91.385c-50.391,-0 -91.388,-40.995 -91.388,-91.385c-0,-1.397 0.045,-2.778 0.105,-4.152l-127.092,-0c-6.321,-0 -11.446,-5.127 -11.446,-11.45c0,-6.319 5.125,-11.446 11.446,-11.446l10.001,-0l-0,-125.033c-0,-6.318 5.124,-11.444 11.446,-11.444c6.321,0 11.446,5.126 11.446,11.444l-0,82.146l126.744,-0c15.897,-13.374 36.39,-21.448 58.738,-21.448c22.348,0 42.84,8.074 58.731,21.448l315.868,-0l-0,-370.956l-560.081,-0l-0,68.491c-0,6.32 -5.125,11.447 -11.446,11.447c-6.322,0 -11.446,-5.127 -11.446,-11.447l-0,-79.938c-0,-6.319 5.124,-11.447 11.446,-11.447l582.973,-0c6.321,-0 11.452,5.128 11.452,11.447l-0,68.491l246.187,-0c5.024,-0 9.459,3.274 10.94,8.074l55.433,179.379c0.335,1.085 0.503,2.223 0.503,3.37l-0,165.976l43.992,-0c6.32,-0 11.446,5.127 11.446,11.446" style="fill:#2e3092;fill-rule:nonzero;"/><path d="M7647.6,145.991l216.415,-0c6.321,-0 11.452,-5.127 11.452,-11.447c-0,-6.322 -5.131,-11.447 -11.452,-11.447l-216.415,0c-6.32,0 -11.445,5.125 -11.445,11.447c0,6.32 5.125,11.447 11.445,11.447" style="fill:#2e3092;fill-rule:nonzero;"/><path d="M7813.07,204.737c0,-6.32 -5.125,-11.448 -11.446,-11.448l-224.225,0c-6.314,0 -11.445,5.128 -11.445,11.448c-0,6.318 5.131,11.445 11.445,11.445l224.225,0c6.321,0 11.446,-5.127 11.446,-11.445" style="fill:#2e3092;fill-rule:nonzero;"/><path d="M7887.16,273.95c-0,-6.314 -5.119,-11.445 -11.439,-11.445l-196.929,0c-6.32,0 -11.445,5.131 -11.445,11.445c-0,6.323 5.125,11.449 11.445,11.449l196.929,-0c6.32,-0 11.439,-5.126 11.439,-11.449" style="fill:#2e3092;fill-rule:nonzero;"/><path d="M8580.08,277.126l-32.321,-115.54l-126.368,0l-0,115.54l158.689,0Zm24.208,18.366c-2.163,2.853 -5.544,4.528 -9.118,4.528l-185.223,-0c-6.32,-0 -11.445,-5.124 -11.445,-11.444l-0,-138.436c-0,-6.319 5.125,-11.446 11.445,-11.446l146.493,0c5.134,0 9.641,3.421 11.021,8.362l38.728,138.432c0.971,3.453 0.264,7.154 -1.901,10.004" style="fill:#2e3092;fill-rule:nonzero;"/><path d="M8456.74,327.824l-46.789,-0c-6.32,-0 -11.445,5.132 -11.445,11.446c-0,6.323 5.125,11.45 11.445,11.45l46.789,-0c6.32,-0 11.448,-5.127 11.448,-11.45c-0.001,-6.314 -5.128,-11.446 -11.448,-11.446" style="fill:#2e3092;fill-rule:nonzero;"/><path d="M8649.18,438.966l-33.273,-0c-4.554,-13.908 -12.357,-26.558 -22.702,-36.921c-17.551,-17.578 -41.16,-27.414 -66.012,-27.414c-24.832,-0 -48.422,9.821 -65.968,27.376c-10.364,10.368 -18.181,23.033 -22.742,36.959l-75.598,-0l0,-330.028l234.378,-0l51.917,168.011l-0,162.017Zm-179.062,-99.696c0,-7.387 -5.998,-13.385 -13.385,-13.385l-46.789,-0c-7.388,-0 -13.384,5.997 -13.384,13.385c-0,7.391 5.993,13.388 13.384,13.388l46.789,-0c7.392,-0 13.385,-5.998 13.385,-13.388Zm135.71,-42.605c2.534,-3.336 3.355,-7.665 2.226,-11.698l-38.73,-138.434c-1.617,-5.779 -6.884,-9.778 -12.887,-9.778l-146.493,-0c-7.39,-0 -13.384,5.995 -13.384,13.385l-0,138.436c-0,7.39 5.995,13.382 13.384,13.382l185.223,-0c4.183,-0 8.133,-1.961 10.661,-5.293" style="fill:#f7931d;"/><path d="M7779.91,422.85l101.971,-0c-2.875,5.138 -5.294,10.52 -7.138,16.116l-94.833,-0l-0,-16.116Z" style="fill:#f7931d;"/><path d="M8336.11,422.85l-0,16.116l-283.955,-0c-1.84,-5.598 -4.259,-10.98 -7.137,-16.116l291.092,-0Z" style="fill:#f7931d;"/><path d="M8081.73,241.575l-49.711,-0c-5.491,-0 -7.687,-2.739 -6.583,-8.226l0.328,-1.974c0.875,-5.701 4.065,-8.556 9.562,-8.556l50.117,0l-3.713,18.756Zm95.396,-129.807c-4.171,-5.153 -9.982,-7.731 -17.44,-7.731l-164.527,0c-7.243,0 -13.877,2.578 -19.911,7.731c-6.033,5.158 -9.706,11.349 -11.019,18.591l-29.612,164.523c-1.321,7.236 0.163,13.438 4.444,18.592c4.276,5.157 10.035,7.731 17.27,7.731l140.171,-0l6.569,-36.523l-115.265,-0c-4.178,-0 -7.465,-1.481 -9.884,-4.451c-2.412,-2.956 -3.183,-6.531 -2.301,-10.704l20.485,-113.836c0.66,-4.164 2.746,-7.729 6.257,-10.691c3.516,-2.962 7.366,-4.44 11.537,-4.44l114.331,-0c4.171,-0 7.471,1.486 9.884,4.45c2.418,2.967 3.183,6.537 2.306,10.712l-13.497,75.35c-1.098,7.003 -5.256,10.503 -12.485,10.503l-3.288,0.031l12.335,-70.441c0.875,-4.606 -0,-8.498 -2.628,-11.68c-2.634,-3.184 -6.249,-4.776 -10.857,-4.776l-99.704,-0l-5.268,28.954l78.976,0c5.477,0 7.673,2.747 6.582,8.227l-0.327,1.973l-70.418,0c-4.603,0 -8.831,1.646 -12.669,4.936c-3.837,3.292 -6.085,7.241 -6.745,11.848l-7.897,43.433c-0.882,4.608 -0,8.502 2.635,11.68c2.627,3.18 6.248,4.771 10.851,4.771l123.724,-0c7.452,-0 14.198,-2.576 20.237,-7.731c6.027,-5.154 9.708,-11.353 11.021,-18.595l20.401,-113.846c1.321,-7.242 -0.118,-13.433 -4.274,-18.591" style="fill:#f7931d;fill-rule:nonzero;"/><path d="M8510.84,467.956c-0,-9.033 7.318,-16.363 16.353,-16.363c9.037,-0 16.357,7.329 16.357,16.363c0,9.032 -7.326,16.354 -16.357,16.354c-9.03,0 -16.353,-7.323 -16.353,-16.354" style="fill:#f7931d;"/><path d="M7947.1,467.96c-0,-9.035 7.318,-16.365 16.354,-16.365c9.036,-0 16.357,7.329 16.357,16.365c-0,9.03 -7.327,16.353 -16.357,16.353c-9.031,-0 -16.354,-7.324 -16.354,-16.353" style="fill:#f7931d;"/></svg>