<?xml version="1.0" encoding="UTF-8" standalone="no"?><!DOCTYPE svg PUBLIC "-//W3C//DTD SVG 1.1//EN" "http://www.w3.org/Graphics/SVG/1.1/DTD/svg11.dtd"><svg width="100%" height="100%" viewBox="0 0 1174 996" version="1.1" xmlns="http://www.w3.org/2000/svg" xmlns:xlink="http://www.w3.org/1999/xlink" xml:space="preserve" xmlns:serif="http://www.serif.com/" style="fill-rule:evenodd;clip-rule:evenodd;stroke-linejoin:round;stroke-miterlimit:2;"><rect id="Tavola-da-disegno4" serif:id="Tavola da disegno4" x="0" y="0" width="1173.23" height="995.863" style="fill:none;"/><path d="M753.061,684.132c0,-9.818 7.994,-17.798 17.805,-17.798c9.819,0 17.8,7.98 17.8,17.798c-0,9.809 -7.981,17.802 -17.8,17.802c-9.811,-0 -17.805,-7.993 -17.805,-17.802Zm-22.89,-0c-0,22.436 18.256,40.695 40.695,40.695c22.442,-0 40.692,-18.259 40.692,-40.695c-0,-22.44 -18.25,-40.69 -40.692,-40.69c-22.439,-0 -40.695,18.25 -40.695,40.69" style="fill:#2e3092;fill-rule:nonzero;"/><path d="M189.322,684.132c0,-9.818 7.985,-17.798 17.801,-17.798c9.811,0 17.804,7.98 17.804,17.798c-0,9.809 -7.993,17.802 -17.804,17.802c-9.816,-0 -17.801,-7.993 -17.801,-17.802Zm-22.889,-0c-0,22.436 18.253,40.695 40.69,40.695c22.438,-0 40.695,-18.259 40.695,-40.695c-0,-22.44 -18.257,-40.69 -40.695,-40.69c-22.437,-0 -40.69,18.25 -40.69,40.69" style="fill:#2e3092;fill-rule:nonzero;"/><path d="M119.821,657.084l-36.623,-0l0,-164.248l52.426,-169.657l237.746,0l0,333.905l-78.948,-0c-11.56,-37.224 -46.321,-64.335 -87.299,-64.335c-40.982,0 -75.743,27.111 -87.302,64.335Zm18.805,27.048c0,-37.764 30.726,-68.487 68.497,-68.487c37.766,-0 68.493,30.723 68.493,68.487c0,37.764 -30.727,68.491 -68.493,68.491c-37.771,0 -68.497,-30.727 -68.497,-68.491Zm544.945,-27.048l-287.303,-0l0,-19.993l296.284,0c-3.752,6.222 -6.785,12.923 -8.981,19.993Zm18.806,27.048c-0,-19.508 8.209,-37.116 21.341,-49.605c0.426,-0.344 0.818,-0.724 1.191,-1.131c12.158,-11.022 28.29,-17.751 45.957,-17.751c17.676,-0 33.808,6.729 45.967,17.751c0.372,0.407 0.764,0.787 1.189,1.131c13.126,12.489 21.336,30.097 21.336,49.605c-0,37.764 -30.722,68.491 -68.492,68.491c-37.767,0 -68.489,-30.727 -68.489,-68.491Zm155.793,-27.048c-2.197,-7.07 -5.236,-13.771 -8.988,-19.993l107.167,0l0,19.993l-98.179,-0Zm-853.301,11.446c-0,6.322 5.125,11.449 11.446,11.449l99.528,0c-0.065,1.375 -0.108,2.756 -0.108,4.153c0,50.39 40.997,91.385 91.388,91.385c50.389,-0 91.384,-40.995 91.384,-91.385c0,-1.397 -0.041,-2.778 -0.105,-4.153l381.182,0c-0.059,1.375 -0.105,2.756 -0.105,4.153c-0,50.39 40.997,91.385 91.387,91.385c50.392,-0 91.39,-40.995 91.39,-91.385c-0,-1.397 -0.047,-2.778 -0.105,-4.153l127.091,0c6.321,0 11.446,-5.127 11.446,-11.449c-0,-6.319 -5.125,-11.446 -11.446,-11.446l-10.001,-0l0,-125.033c0,-6.318 -5.125,-11.444 -11.446,-11.444c-6.321,0 -11.446,5.126 -11.446,11.444l0,82.146l-126.744,-0c-15.897,-13.374 -36.39,-21.448 -58.739,-21.448c-22.347,0 -42.84,8.074 -58.73,21.448l-315.868,-0l0,-370.956l560.081,-0l0,68.491c0,6.32 5.125,11.447 11.446,11.447c6.321,0 11.446,-5.127 11.446,-11.447l0,-79.938c0,-6.319 -5.125,-11.447 -11.446,-11.447l-582.973,-0c-6.321,-0 -11.452,5.128 -11.452,11.447l0,68.49l-246.188,0c-5.023,0 -9.458,3.275 -10.939,8.075l-55.433,179.378c-0.335,1.086 -0.503,2.224 -0.503,3.371l0,165.976l-43.992,-0c-6.321,-0 -11.446,5.127 -11.446,11.446" style="fill:#2e3092;fill-rule:nonzero;"/><path d="M1086.72,362.171l-216.414,-0c-6.321,-0 -11.452,-5.127 -11.452,-11.447c0,-6.322 5.131,-11.447 11.452,-11.447l216.414,0c6.321,0 11.446,5.125 11.446,11.447c-0,6.32 -5.125,11.447 -11.446,11.447" style="fill:#2e3092;fill-rule:nonzero;"/><path d="M921.248,420.917c0,-6.32 5.125,-11.448 11.446,-11.448l224.224,0c6.316,0 11.446,5.128 11.446,11.448c0,6.318 -5.13,11.445 -11.446,11.445l-224.224,0c-6.321,0 -11.446,-5.127 -11.446,-11.445" style="fill:#2e3092;fill-rule:nonzero;"/><path d="M847.162,490.13c0,-6.314 5.118,-11.445 11.439,-11.445l196.929,0c6.32,0 11.445,5.131 11.445,11.445c-0,6.323 -5.125,11.449 -11.445,11.449l-196.929,-0c-6.321,-0 -11.439,-5.126 -11.439,-11.449" style="fill:#2e3092;fill-rule:nonzero;"/><path d="M154.239,493.306l32.321,-115.54l126.369,0l-0,115.54l-158.69,0Zm-24.208,18.366c2.163,2.853 5.544,4.527 9.118,4.527l185.222,0c6.321,0 11.446,-5.123 11.446,-11.443l-0,-138.436c-0,-6.319 -5.125,-11.446 -11.446,-11.446l-146.492,0c-5.135,0 -9.642,3.42 -11.021,8.362l-38.729,138.432c-0.97,3.453 -0.263,7.154 1.902,10.004" style="fill:#2e3092;fill-rule:nonzero;"/><path d="M277.583,544.004l46.788,-0c6.321,-0 11.446,5.132 11.446,11.446c-0,6.322 -5.125,11.449 -11.446,11.449l-46.788,0c-6.32,0 -11.447,-5.127 -11.447,-11.449c-0,-6.314 5.127,-11.446 11.447,-11.446" style="fill:#2e3092;fill-rule:nonzero;"/><path d="M85.136,655.146l33.273,-0c4.555,-13.908 12.357,-26.559 22.702,-36.921c17.551,-17.578 41.16,-27.414 66.012,-27.414c24.831,-0 48.421,9.821 65.968,27.376c10.364,10.368 18.181,23.033 22.742,36.959l75.598,-0l-0,-330.029l-234.378,0l-51.917,168.012l0,162.017Zm179.061,-99.696c0,-7.387 5.999,-13.386 13.386,-13.386l46.788,0c7.389,0 13.384,5.998 13.384,13.386c0,7.391 -5.991,13.388 -13.384,13.388l-46.788,-0c-7.392,-0 -13.386,-5.998 -13.386,-13.388Zm-135.71,-42.605c-2.533,-3.336 -3.354,-7.665 -2.225,-11.698l38.73,-138.434c1.617,-5.779 6.884,-9.779 12.887,-9.779l146.492,0c7.391,0 13.384,5.996 13.384,13.386l0,138.436c0,7.39 -5.994,13.382 -13.384,13.382l-185.222,-0c-4.183,-0 -8.133,-1.961 -10.662,-5.293" style="fill:#f7931d;"/><path d="M954.411,639.029l-101.97,0c2.874,5.139 5.293,10.52 7.137,16.117l94.833,-0l0,-16.117Z" style="fill:#f7931d;"/><path d="M398.206,639.029l0,16.117l283.955,-0c1.84,-5.598 4.259,-10.98 7.136,-16.117l-291.091,0Z" style="fill:#f7931d;"/><path d="M700.023,457.755l-49.71,-0c-5.491,-0 -7.687,-2.739 -6.583,-8.226l0.328,-1.974c0.875,-5.701 4.065,-8.556 9.562,-8.556l50.116,0l-3.713,18.756Zm95.395,-129.807c-4.17,-5.153 -9.982,-7.731 -17.439,-7.731l-164.526,-0c-7.243,-0 -13.877,2.578 -19.911,7.731c-6.033,5.158 -9.706,11.349 -11.021,18.591l-29.61,164.523c-1.321,7.236 0.163,13.438 4.444,18.592c4.276,5.157 10.035,7.731 17.27,7.731l140.171,-0l6.569,-36.523l-115.266,-0c-4.177,-0 -7.464,-1.481 -9.883,-4.451c-2.412,-2.956 -3.183,-6.531 -2.301,-10.704l20.485,-113.836c0.66,-4.164 2.746,-7.729 6.256,-10.691c3.516,-2.962 7.367,-4.44 11.538,-4.44l114.331,-0c4.171,-0 7.471,1.486 9.884,4.45c2.417,2.967 3.183,6.537 2.306,10.712l-13.497,75.35c-1.099,7.003 -5.256,10.503 -12.486,10.503l-3.288,0.031l12.335,-70.441c0.876,-4.606 0,-8.498 -2.628,-11.68c-2.633,-3.184 -6.249,-4.776 -10.857,-4.776l-99.703,-0l-5.268,28.954l78.975,0c5.478,0 7.674,2.747 6.582,8.226l-0.326,1.974l-70.418,0c-4.603,0 -8.832,1.646 -12.669,4.936c-3.838,3.292 -6.085,7.241 -6.745,11.848l-7.897,43.432c-0.882,4.609 -0,8.503 2.634,11.681c2.627,3.18 6.249,4.771 10.85,4.771l123.726,-0c7.451,-0 14.198,-2.576 20.237,-7.732c6.027,-5.153 9.707,-11.352 11.021,-18.594l20.401,-113.846c1.32,-7.242 -0.118,-13.433 -4.276,-18.591" style="fill:#f7931d;fill-rule:nonzero;"/><path d="M223.476,684.136c0,-9.033 -7.318,-16.363 -16.353,-16.363c-9.037,-0 -16.357,7.329 -16.357,16.363c-0,9.032 7.325,16.354 16.357,16.354c9.029,0 16.353,-7.323 16.353,-16.354" style="fill:#f7931d;"/><path d="M787.219,684.139c-0,-9.034 -7.318,-16.364 -16.354,-16.364c-9.036,-0 -16.357,7.329 -16.357,16.364c0,9.031 7.327,16.354 16.357,16.354c9.03,-0 16.354,-7.324 16.354,-16.354" style="fill:#f7931d;"/></svg>